<svg width="14" height="24" viewBox="0 0 14 24" fill="none" xmlns="http://www.w3.org/2000/svg">
<g clip-path="url(#clip0_1_231)">
<path d="M13.0677 15.7632C13.0677 17.0913 12.6358 18.235 11.7721 19.1942C10.9084 20.1534 9.78641 20.7458 8.4062 20.9715V23.2502C8.4062 23.3717 8.36714 23.4715 8.28901 23.5496C8.21089 23.6278 8.11106 23.6668 7.98953 23.6668H6.23172C6.11888 23.6668 6.02122 23.6256 5.93876 23.5431C5.85629 23.4607 5.81506 23.363 5.81506 23.2502V20.9715C5.24214 20.8934 4.68876 20.7588 4.1549 20.5679C3.62105 20.3769 3.18051 20.1838 2.83329 19.9884C2.48607 19.7931 2.16489 19.5848 1.86975 19.3634C1.57461 19.1421 1.37279 18.9793 1.26428 18.8752C1.15578 18.771 1.07982 18.6929 1.03642 18.6408C0.888848 18.4585 0.880168 18.2805 1.01038 18.1069L2.35152 16.3491C2.41228 16.2623 2.51211 16.2102 2.651 16.1929C2.78121 16.1755 2.88537 16.2146 2.9635 16.3101L2.98954 16.3361C3.97044 17.1955 5.02513 17.738 6.1536 17.9637C6.47478 18.0331 6.79596 18.0679 7.11714 18.0679C7.82026 18.0679 8.43875 17.8812 8.97261 17.508C9.50646 17.1347 9.77339 16.6052 9.77339 15.9194C9.77339 15.6764 9.70828 15.4463 9.57807 15.2293C9.44787 15.0123 9.30247 14.83 9.14188 14.6825C8.98129 14.5349 8.72738 14.3721 8.38016 14.1942C8.03294 14.0162 7.74648 13.8773 7.52078 13.7775C7.29509 13.6777 6.94787 13.5366 6.47912 13.3543C6.14058 13.2154 5.87365 13.1069 5.67834 13.0288C5.48303 12.9507 5.2161 12.8357 4.87756 12.6838C4.53902 12.5318 4.26775 12.3973 4.06376 12.2801C3.85976 12.1629 3.61454 12.0088 3.32808 11.8179C3.04162 11.6269 2.80942 11.4424 2.63147 11.2645C2.45352 11.0865 2.26471 10.8739 2.06506 10.6265C1.86541 10.3791 1.71133 10.1273 1.60282 9.87126C1.49432 9.61518 1.40317 9.32655 1.32939 9.00537C1.2556 8.68419 1.21871 8.34565 1.21871 7.98975C1.21871 6.79183 1.64406 5.74148 2.49475 4.8387C3.34544 3.93593 4.45221 3.35433 5.81506 3.09391V0.750163C5.81506 0.637316 5.85629 0.539659 5.93876 0.457194C6.02122 0.374729 6.11888 0.333496 6.23172 0.333496H7.98953C8.11106 0.333496 8.21089 0.372559 8.28901 0.450684C8.36714 0.528809 8.4062 0.628635 8.4062 0.750163V3.04183C8.90099 3.09391 9.38059 3.19374 9.845 3.34131C10.3094 3.48888 10.687 3.63428 10.9778 3.77751C11.2686 3.92074 11.5442 4.0835 11.8046 4.26579C12.0651 4.44808 12.2343 4.57395 12.3124 4.64339C12.3906 4.71284 12.4557 4.7736 12.5078 4.82568C12.6553 4.98193 12.677 5.14686 12.5729 5.32048L11.5182 7.22152C11.4487 7.35173 11.3489 7.42117 11.2187 7.42985C11.0972 7.45589 10.98 7.42551 10.8671 7.3387C10.8411 7.31266 10.7782 7.26058 10.6783 7.18245C10.5785 7.10433 10.4092 6.98931 10.1705 6.8374C9.93181 6.68549 9.6779 6.5466 9.4088 6.42074C9.13971 6.29487 8.81636 6.18202 8.43875 6.08219C8.06115 5.98237 7.69006 5.93245 7.32547 5.93245C6.50082 5.93245 5.82808 6.11909 5.30725 6.49235C4.78641 6.86561 4.526 7.34739 4.526 7.93766C4.526 8.16336 4.56289 8.37169 4.63667 8.56266C4.71046 8.75364 4.8385 8.93376 5.02079 9.10303C5.20308 9.2723 5.37452 9.41553 5.53511 9.53271C5.6957 9.6499 5.93876 9.78445 6.26428 9.93636C6.5898 10.0883 6.85238 10.2055 7.05204 10.2879C7.25169 10.3704 7.55551 10.4897 7.96349 10.646C8.42356 10.8196 8.77512 10.9563 9.01818 11.0562C9.26123 11.156 9.59109 11.3079 10.0078 11.5119C10.4244 11.7159 10.7521 11.9003 10.9908 12.0653C11.2295 12.2302 11.4986 12.4472 11.7981 12.7163C12.0976 12.9854 12.3276 13.261 12.4882 13.5431C12.6488 13.8253 12.7855 14.1573 12.8984 14.5392C13.0112 14.9212 13.0677 15.3292 13.0677 15.7632Z" fill="#6366F1"/>
</g>
<defs>
<clipPath id="clip0_1_231">
<rect width="12.5" height="23.3333" fill="white" transform="translate(0.749969 0.333374)"/>
</clipPath>
</defs>
</svg>
