<svg width="12" height="11" viewBox="0 0 12 11" fill="none" xmlns="http://www.w3.org/2000/svg">
<path fill-rule="evenodd" clip-rule="evenodd" d="M5.06249 0.364197C3.91873 0.364197 2.82182 0.818555 2.01306 1.62732C1.2043 2.43608 0.749942 3.533 0.749942 4.67676V5.06527C0.521929 5.19693 0.332587 5.38629 0.200945 5.61431C0.0693033 5.84233 0 6.10099 0 6.36429C0 6.62758 0.0693033 6.88624 0.200945 7.11427C0.332587 7.34229 0.521929 7.53165 0.749942 7.66331V8.80183C0.749942 9.34884 0.967243 9.87346 1.35404 10.2603C1.74084 10.6471 2.26545 10.8644 2.81246 10.8644H9.18754C9.73455 10.8644 10.2592 10.6471 10.646 10.2603C11.0328 9.87346 11.2501 9.34884 11.2501 8.80183V7.66331C11.4781 7.53165 11.6674 7.34229 11.7991 7.11427C11.9307 6.88624 12 6.62758 12 6.36429C12 6.10099 11.9307 5.84233 11.7991 5.61431C11.6674 5.38629 11.4781 5.19693 11.2501 5.06527V4.67676C11.2501 3.533 10.7957 2.43608 9.98694 1.62732C9.17818 0.818555 8.08127 0.364197 6.93751 0.364197H5.06249ZM10.5 5.98928H1.49995C1.40049 5.98928 1.30511 6.02879 1.23478 6.09912C1.16446 6.16945 1.12495 6.26483 1.12495 6.36429C1.12495 6.46375 1.16446 6.55913 1.23478 6.62946C1.30511 6.69978 1.40049 6.73929 1.49995 6.73929H10.5C10.5995 6.73929 10.6949 6.69978 10.7652 6.62946C10.8355 6.55913 10.8751 6.46375 10.8751 6.36429C10.8751 6.26483 10.8355 6.16945 10.7652 6.09912C10.6949 6.02879 10.5995 5.98928 10.5 5.98928ZM10.125 4.86427V4.67676C10.125 3.83137 9.78922 3.02061 9.19144 2.42283C8.59366 1.82504 7.7829 1.48921 6.93751 1.48921H5.06249C4.2171 1.48921 3.40634 1.82504 2.80856 2.42283C2.21078 3.02061 1.87495 3.83137 1.87495 4.67676V4.86427H10.125ZM8.25002 7.86431H10.125V8.80183C10.125 9.31933 9.70504 9.73934 9.18754 9.73934H2.81246C2.29496 9.73934 1.87495 9.31933 1.87495 8.80183V7.86431H6.75001L7.50002 8.61432L8.25002 7.86431Z" fill="#333333" fill-opacity="0.8"/>
</svg>
