<svg width="50" height="50" viewBox="0 0 50 50" fill="none" xmlns="http://www.w3.org/2000/svg">
<rect x="0.416667" y="0.416667" width="49.1667" height="49.1667" rx="7.91667" fill="#D5D5D5" fill-opacity="0.2"/>
<rect x="0.416667" y="0.416667" width="49.1667" height="49.1667" rx="7.91667" stroke="#B5BCFF" stroke-width="0.833333"/>
<g clip-path="url(#clip0_1_217)">
<path d="M26.2741 19.4221C24.7104 19.1166 23.0926 19.2499 21.6 19.8073C21.5275 19.836 21.4614 19.8787 21.4054 19.933C21.3495 19.9872 21.3047 20.0519 21.2738 20.1235C21.2113 20.2679 21.2087 20.4313 21.2667 20.5777C21.3246 20.7241 21.4383 20.8414 21.5828 20.9039C21.7273 20.9664 21.8907 20.969 22.037 20.911C23.3222 20.4251 24.7163 20.3021 26.0667 20.5555C26.1458 20.5763 26.2284 20.5805 26.3093 20.5678C26.3902 20.5551 26.4675 20.5259 26.5365 20.4818C26.6055 20.4377 26.6646 20.3798 26.7101 20.3118C26.7556 20.2438 26.7865 20.167 26.8009 20.0864C26.8152 20.0059 26.8128 19.9232 26.7936 19.8436C26.7744 19.764 26.739 19.6893 26.6895 19.6241C26.64 19.5589 26.5775 19.5046 26.506 19.4648C26.4345 19.4249 26.3556 19.4003 26.2741 19.3925V19.4221Z" fill="#6366F1"/>
<path d="M30.4666 25.0518C31.023 25.0518 31.474 24.6008 31.474 24.0444C31.474 23.488 31.023 23.037 30.4666 23.037C29.9103 23.037 29.4592 23.488 29.4592 24.0444C29.4592 24.6008 29.9103 25.0518 30.4666 25.0518Z" fill="#6366F1"/>
<path d="M37.9704 25.4665C37.9017 25.365 37.8089 25.282 37.7003 25.2251C37.5917 25.1683 37.4707 25.1392 37.3481 25.1406C36.7497 25.0575 36.2006 24.7633 35.8 24.311C35.0291 23.4684 34.3739 22.5267 33.8518 21.511L35.9852 18.1777C36.1146 17.9845 36.1939 17.7621 36.2159 17.5306C36.2379 17.2991 36.2019 17.0658 36.1111 16.8517C36.0202 16.657 35.8828 16.4875 35.711 16.3584C35.5392 16.2292 35.3383 16.1442 35.1259 16.111C33.7693 15.9282 32.3885 16.1203 31.1333 16.6665C30.414 16.9834 29.7371 17.389 29.1185 17.874C27.9069 17.3307 26.6168 16.9831 25.2963 16.8443C20.0444 16.3332 15.2444 19.7406 14.6296 24.2591C14.39 24.1513 14.1754 23.9949 13.9995 23.7999C13.8235 23.6048 13.69 23.3752 13.6074 23.1258C13.5546 22.9548 13.5365 22.7749 13.5544 22.5968C13.5722 22.4187 13.6255 22.2459 13.7111 22.0888C13.7879 21.9568 13.8977 21.847 14.0296 21.7702C14.1196 21.7158 14.198 21.6441 14.2603 21.5593C14.3225 21.4746 14.3675 21.3784 14.3926 21.2762C14.4177 21.1741 14.4225 21.068 14.4066 20.964C14.3907 20.8601 14.3545 20.7602 14.3 20.6702C14.2455 20.5803 14.1739 20.5019 14.0891 20.4396C14.0043 20.3773 13.9081 20.3324 13.806 20.3072C13.7038 20.2821 13.5978 20.2774 13.4938 20.2933C13.3898 20.3092 13.29 20.3454 13.2 20.3999C12.8414 20.62 12.5455 20.9286 12.3407 21.2962C12.1503 21.6411 12.0307 22.0205 11.9887 22.4123C11.9467 22.804 11.9833 23.2002 12.0963 23.5777C12.2354 24.035 12.466 24.4593 12.7741 24.8248C13.0823 25.1903 13.4616 25.4893 13.8889 25.7036L14.5704 26.0443C14.6555 27.8475 15.1146 29.6132 15.9185 31.2295L16.0444 31.511C16.6869 32.8698 17.5064 34.1376 18.4815 35.2814C18.5509 35.3604 18.6363 35.4237 18.7321 35.4671C18.8279 35.5105 18.9319 35.5331 19.037 35.5332H22.3852C22.5065 35.5326 22.6258 35.5022 22.7326 35.4447C22.8395 35.3872 22.9305 35.3043 22.9978 35.2034C23.0651 35.1024 23.1066 34.9865 23.1186 34.8658C23.1306 34.745 23.1128 34.6232 23.0667 34.511L22.7778 33.8443L23.6518 33.9406C24.6371 34.038 25.6295 34.038 26.6148 33.9406C26.8889 34.3851 27.1852 34.8295 27.5111 35.2665C27.5793 35.3599 27.6684 35.436 27.7713 35.4887C27.8742 35.5415 27.9881 35.5694 28.1037 35.5702H31.3185C31.4408 35.5701 31.5611 35.5398 31.6688 35.4819C31.7765 35.424 31.8681 35.3403 31.9356 35.2383C32.0031 35.1364 32.0443 35.0193 32.0555 34.8976C32.0667 34.7758 32.0477 34.6532 32 34.5406C31.8741 34.2443 31.7481 33.9258 31.6518 33.6517C31.5185 33.2591 31.4148 32.911 31.3333 32.5777C32.1514 32.136 32.9022 31.5798 33.563 30.9258C34.301 31.015 35.0471 31.015 35.7852 30.9258C35.9132 30.9064 36.034 30.8538 36.1353 30.7733C36.2367 30.6927 36.3152 30.5869 36.363 30.4665L38.037 26.1628C38.0841 26.0503 38.1027 25.9278 38.0911 25.8063C38.0794 25.6849 38.038 25.5681 37.9704 25.4665ZM35.1704 29.4962C34.5889 29.5293 34.0055 29.502 33.4296 29.4147C32.7739 29.3039 32.1407 29.0862 31.5555 28.7702C31.3822 28.6843 31.1822 28.6696 30.9981 28.7292C30.8141 28.7888 30.6607 28.9181 30.5707 29.0893C30.4808 29.2606 30.4613 29.4602 30.5166 29.6456C30.5719 29.831 30.6976 29.9874 30.8667 30.0814C31.1762 30.2437 31.4953 30.3871 31.8222 30.511C31.4183 30.8559 30.9698 31.1449 30.4889 31.3702L29.7037 31.7258C29.7037 31.7258 30.0667 33.348 30.3111 34.0665H28.5481C28.3704 33.8147 27.4741 32.3184 27.4741 32.3184L26.9778 32.3851C25.9353 32.5354 24.8789 32.5652 23.8296 32.474C23.3407 32.4295 22.5259 32.3258 21.8889 32.2147L20.7407 32.0147C20.7407 32.0147 21.2074 33.8147 21.2963 34.0443H19.3852C18.6045 33.0884 17.9429 32.0413 17.4148 30.9258L17.2815 30.6369C16.319 28.7843 15.9126 26.6929 16.1111 24.6147C16.5111 20.7702 20.6444 17.8665 25.1407 18.2888C26.4487 18.4354 27.7216 18.8062 28.9037 19.3851L29.363 19.5999L29.7333 19.2517C30.3101 18.7363 30.962 18.3117 31.6667 17.9925C32.5989 17.5881 33.6173 17.4226 34.6296 17.511L32.1259 21.4295L32.3111 21.7999C32.958 23.1029 33.7832 24.3096 34.763 25.3851C35.218 25.8298 35.7568 26.1798 36.3481 26.4147L35.1704 29.4962Z" fill="#6366F1"/>
</g>
<defs>
<clipPath id="clip0_1_217">
<rect width="26.6667" height="26.6667" fill="white" transform="translate(11.6667 11.6666)"/>
</clipPath>
</defs>
</svg>
