<svg width="28" height="28" viewBox="0 0 28 28" fill="none" xmlns="http://www.w3.org/2000/svg">
<g clip-path="url(#clip0_1_218)">
<path d="M15.2741 8.42214C13.7104 8.11659 12.0926 8.24991 10.6 8.80733C10.5275 8.83602 10.4614 8.87871 10.4054 8.93296C10.3495 8.9872 10.3047 9.05194 10.2738 9.12348C10.2113 9.26795 10.2087 9.43134 10.2667 9.5777C10.3246 9.72406 10.4383 9.8414 10.5828 9.90391C10.7273 9.96642 10.8907 9.96898 11.037 9.91103C12.3222 9.4251 13.7163 9.3021 15.0667 9.55547C15.1458 9.57631 15.2284 9.58052 15.3093 9.56783C15.3902 9.55515 15.4675 9.52585 15.5365 9.48179C15.6055 9.43772 15.6646 9.37984 15.7101 9.3118C15.7556 9.24375 15.7865 9.16702 15.8009 9.08644C15.8152 9.00586 15.8128 8.92317 15.7936 8.84359C15.7744 8.76402 15.739 8.68928 15.6895 8.62408C15.64 8.55888 15.5775 8.50465 15.506 8.46479C15.4345 8.42494 15.3556 8.40033 15.2741 8.39251V8.42214Z" fill="#6366F1"/>
<path d="M19.4666 14.0518C20.023 14.0518 20.474 13.6008 20.474 13.0444C20.474 12.488 20.023 12.037 19.4666 12.037C18.9103 12.037 18.4592 12.488 18.4592 13.0444C18.4592 13.6008 18.9103 14.0518 19.4666 14.0518Z" fill="#6366F1"/>
<path d="M26.9704 14.4665C26.9017 14.365 26.8089 14.282 26.7003 14.2251C26.5917 14.1683 26.4707 14.1392 26.3481 14.1406C25.7497 14.0575 25.2006 13.7633 24.8 13.311C24.0291 12.4684 23.3739 11.5267 22.8518 10.511L24.9852 7.17766C25.1146 6.98449 25.1939 6.76212 25.2159 6.53063C25.2379 6.29913 25.2019 6.06581 25.1111 5.85173C25.0202 5.65696 24.8828 5.48754 24.711 5.35837C24.5392 5.2292 24.3383 5.14424 24.1259 5.11099C22.7693 4.92816 21.3885 5.12029 20.1333 5.66654C19.414 5.9834 18.7371 6.38902 18.1185 6.87395C16.9069 6.33068 15.6168 5.98314 14.2963 5.84432C9.04443 5.33321 4.24443 8.74062 3.62962 13.2591C3.39001 13.1513 3.17542 12.9949 2.99945 12.7999C2.82348 12.6048 2.68998 12.3752 2.6074 12.1258C2.55458 11.9548 2.53655 11.7749 2.55436 11.5968C2.57217 11.4187 2.62546 11.2459 2.7111 11.0888C2.78789 10.9568 2.89765 10.847 3.02962 10.7702C3.1196 10.7158 3.19797 10.6441 3.26025 10.5593C3.32254 10.4746 3.36751 10.3784 3.39262 10.2762C3.41773 10.1741 3.42247 10.068 3.40657 9.96403C3.39068 9.86006 3.35446 9.76023 3.29999 9.67025C3.24551 9.58027 3.17385 9.5019 3.08909 9.43961C3.00433 9.37733 2.90813 9.33235 2.80598 9.30724C2.70384 9.28214 2.59775 9.2774 2.49377 9.29329C2.3898 9.30919 2.28997 9.3454 2.19999 9.39988C1.84141 9.61997 1.5455 9.92863 1.34073 10.2962C1.15035 10.6411 1.03067 11.0205 0.988694 11.4123C0.946722 11.804 0.983299 12.2002 1.09628 12.5777C1.23536 13.035 1.46598 13.4593 1.77415 13.8248C2.08231 14.1903 2.46157 14.4893 2.88888 14.7036L3.57036 15.0443C3.65549 16.8475 4.11459 18.6132 4.91851 20.2295L5.04443 20.511C5.68691 21.8698 6.50637 23.1376 7.48147 24.2814C7.55088 24.3604 7.63633 24.4237 7.73212 24.4671C7.82791 24.5105 7.93185 24.5331 8.03702 24.5332H11.3852C11.5065 24.5326 11.6258 24.5022 11.7326 24.4447C11.8395 24.3872 11.9305 24.3043 11.9978 24.2034C12.0651 24.1024 12.1066 23.9865 12.1186 23.8658C12.1306 23.745 12.1128 23.6232 12.0667 23.511L11.7778 22.8443L12.6518 22.9406C13.6371 23.038 14.6295 23.038 15.6148 22.9406C15.8889 23.3851 16.1852 23.8295 16.5111 24.2665C16.5793 24.3599 16.6684 24.436 16.7713 24.4887C16.8742 24.5415 16.9881 24.5694 17.1037 24.5702H20.3185C20.4408 24.5701 20.5611 24.5398 20.6688 24.4819C20.7765 24.424 20.8681 24.3403 20.9356 24.2383C21.0031 24.1364 21.0443 24.0193 21.0555 23.8976C21.0667 23.7758 21.0477 23.6532 21 23.5406C20.8741 23.2443 20.7481 22.9258 20.6518 22.6517C20.5185 22.2591 20.4148 21.911 20.3333 21.5777C21.1514 21.136 21.9022 20.5798 22.563 19.9258C23.301 20.015 24.0471 20.015 24.7852 19.9258C24.9132 19.9064 25.034 19.8538 25.1353 19.7733C25.2367 19.6927 25.3152 19.5869 25.363 19.4665L27.037 15.1628C27.0841 15.0503 27.1027 14.9278 27.0911 14.8063C27.0794 14.6849 27.038 14.5681 26.9704 14.4665ZM24.1704 18.4962C23.5889 18.5293 23.0055 18.502 22.4296 18.4147C21.7739 18.3039 21.1407 18.0862 20.5555 17.7702C20.3822 17.6843 20.1822 17.6696 19.9981 17.7292C19.8141 17.7888 19.6607 17.9181 19.5707 18.0893C19.4808 18.2606 19.4613 18.4602 19.5166 18.6456C19.5719 18.831 19.6976 18.9874 19.8667 19.0814C20.1762 19.2437 20.4953 19.3871 20.8222 19.511C20.4183 19.8559 19.9698 20.1449 19.4889 20.3702L18.7037 20.7258C18.7037 20.7258 19.0667 22.348 19.3111 23.0665H17.5481C17.3704 22.8147 16.4741 21.3184 16.4741 21.3184L15.9778 21.3851C14.9353 21.5354 13.8789 21.5652 12.8296 21.474C12.3407 21.4295 11.5259 21.3258 10.8889 21.2147L9.74073 21.0147C9.74073 21.0147 10.2074 22.8147 10.2963 23.0443H8.38517C7.60451 22.0884 6.94287 21.0413 6.4148 19.9258L6.28147 19.6369C5.31903 17.7843 4.91259 15.6929 5.1111 13.6147C5.5111 9.77025 9.64443 6.86654 14.1407 7.28877C15.4487 7.43539 16.7216 7.80624 17.9037 8.38506L18.363 8.59988L18.7333 8.25173C19.3101 7.7363 19.962 7.31169 20.6667 6.99247C21.5989 6.58813 22.6173 6.42264 23.6296 6.51099L21.1259 10.4295L21.3111 10.7999C21.958 12.1029 22.7832 13.3096 23.763 14.3851C24.218 14.8298 24.7568 15.1798 25.3481 15.4147L24.1704 18.4962Z" fill="#6366F1"/>
</g>
<defs>
<clipPath id="clip0_1_218">
<rect width="26.6667" height="26.6667" fill="white" transform="translate(0.666702 0.666626)"/>
</clipPath>
</defs>
</svg>
