<svg width="14" height="15" viewBox="0 0 14 15" fill="none" xmlns="http://www.w3.org/2000/svg">
<path d="M3.49992 12.9938C3.17909 12.9938 2.90453 12.8797 2.67625 12.6514C2.44797 12.4231 2.33364 12.1484 2.33325 11.8271V4.82715C2.33325 4.50632 2.44759 4.23176 2.67625 4.00348C2.90492 3.7752 3.17947 3.66087 3.49992 3.66048H4.66659C4.66659 3.01882 4.89506 2.46951 5.352 2.01257C5.80895 1.55562 6.35825 1.32715 6.99992 1.32715C7.64159 1.32715 8.19089 1.55562 8.64783 2.01257C9.10478 2.46951 9.33325 3.01882 9.33325 3.66048H10.4999C10.8208 3.66048 11.0955 3.77482 11.3242 4.00348C11.5528 4.23215 11.667 4.5067 11.6666 4.82715V11.8271C11.6666 12.148 11.5524 12.4227 11.3242 12.6514C11.0959 12.8801 10.8211 12.9942 10.4999 12.9938H3.49992ZM3.49992 11.8271H10.4999V4.82715H9.33325V5.99382C9.33325 6.15909 9.27725 6.29773 9.16525 6.40973C9.05325 6.52173 8.91481 6.57754 8.74992 6.57715C8.58464 6.57715 8.4462 6.52115 8.33459 6.40915C8.22297 6.29715 8.16697 6.1587 8.16658 5.99382V4.82715H5.83325V5.99382C5.83325 6.15909 5.77725 6.29773 5.66525 6.40973C5.55325 6.52173 5.41481 6.57754 5.24992 6.57715C5.08464 6.57715 4.9462 6.52115 4.83459 6.40915C4.72297 6.29715 4.66697 6.1587 4.66659 5.99382V4.82715H3.49992V11.8271ZM5.83325 3.66048H8.16658C8.16658 3.33965 8.05245 3.06509 7.82417 2.83682C7.59589 2.60854 7.32114 2.4942 6.99992 2.49382C6.67909 2.49382 6.40453 2.60815 6.17625 2.83682C5.94797 3.06548 5.83364 3.34004 5.83325 3.66048Z" fill="#333333" fill-opacity="0.8"/>
</svg>
