<svg width="12" height="13" viewBox="0 0 12 13" fill="none" xmlns="http://www.w3.org/2000/svg">
<g id="material-symbols-light:travel">
<path id="Vector" d="M3.723 8.43718L2.4115 7.72518L2.706 7.43068L3.869 7.60568L5.944 5.53068L2.2655 3.54068L2.6385 3.15768L7.1635 4.30568L8.635 2.83018C8.73167 2.73351 8.84634 2.68518 8.979 2.68518C9.11134 2.68518 9.22584 2.73351 9.3225 2.83018C9.41917 2.92685 9.4675 3.04318 9.4675 3.17918C9.4675 3.31451 9.41917 3.43068 9.3225 3.52768L7.8625 5.00618L9.0015 9.52168L8.6285 9.90418L6.6285 6.22568L4.5725 8.28118L4.7375 9.45418L4.434 9.75818L3.723 8.43718Z" fill="#333333"/>
</g>
</svg>
